<?xml version="1.0" encoding="utf-8"?>
<!-- Generator: Adobe Illustrator 19.2.0, SVG Export Plug-In . SVG Version: 6.00 Build 0)  -->
<!DOCTYPE svg PUBLIC "-//W3C//DTD SVG 1.1//EN" "http://www.w3.org/Graphics/SVG/1.1/DTD/svg11.dtd">
<svg version="1.1" id="Layer_1" xmlns="http://www.w3.org/2000/svg" xmlns:xlink="http://www.w3.org/1999/xlink" x="0px" y="0px"
	 viewBox="0 0 503 188" style="enable-background:new 0 0 503 188;" xml:space="preserve">
<style type="text/css">
	.st0{enable-background:new    ;}
	.st1{fill:#183647;}
	.st2{fill:#357D93;}
	.st3{fill:#FFFFFF;}
	.st4{fill:#F4E495;}
</style>
<title>ColoradoCrisisServinces_logo</title>
<g class="st0">
	<path class="st1" d="M197.8,116.8c1,0.4,1.8,1,2.5,1.7c0.7,0.7,1.3,1.6,1.7,2.5c0.4,1,0.6,2,0.6,3.1v3.8c0,0.6-0.3,1-0.8,1.1
		l-5.8,0.9c-0.6,0.2-0.8,0-0.8-0.6v-4.9c0-0.4-0.1-0.8-0.4-1.1c-0.3-0.3-0.7-0.4-1.1-0.4h-0.5c-0.4,0-0.8,0.1-1.1,0.4
		c-0.3,0.3-0.4,0.7-0.4,1.1v22.4c0,0.4,0.1,0.8,0.4,1.1c0.3,0.3,0.7,0.4,1.1,0.4h0.5c0.4,0,0.8-0.1,1.1-0.4c0.3-0.3,0.4-0.7,0.4-1.1
		v-7.6c0-0.6,0.3-0.8,0.8-0.6l5.8,0.8c0.5,0.2,0.8,0.6,0.8,1.1v6.7c0,1.1-0.2,2.1-0.6,3.1c-0.4,1-1,1.8-1.7,2.5
		c-0.7,0.7-1.6,1.3-2.5,1.7c-1,0.4-2,0.6-3.1,0.6h-2.4c-1.1,0-2.1-0.2-3.1-0.6c-1-0.4-1.8-1-2.5-1.7c-0.7-0.7-1.3-1.6-1.7-2.5
		c-0.4-1-0.6-2-0.6-3.1v-23c0-1.1,0.2-2.1,0.6-3.1c0.4-1,1-1.8,1.7-2.5c0.7-0.7,1.6-1.3,2.5-1.7c1-0.4,2-0.6,3.1-0.6h2.4
		C195.8,116.1,196.8,116.3,197.8,116.8z"/>
	<path class="st1" d="M214.9,153.8c0,0.6-0.3,0.9-1,0.9h-5.7c-0.6,0-0.8-0.3-0.8-0.9v-36.3c0-0.6,0.3-0.9,0.9-0.9h9.5
		c1.1,0,2.1,0.2,3.1,0.6c1,0.4,1.8,1,2.5,1.7c0.7,0.7,1.3,1.6,1.7,2.5c0.4,1,0.6,2,0.6,3.1v7.8c0,1.6-0.5,3-1.4,4.2
		c-0.9,1.2-2.1,2.2-3.4,2.9l6,14.3c0.1,0.6-0.1,0.9-0.6,0.9h-5.8c-0.3,0-0.5-0.1-0.7-0.3c-0.2-0.2-0.4-0.4-0.5-0.6l-4.6-11.8V153.8z
		 M214.9,133.6h2c0.4,0,0.8-0.1,1.1-0.4c0.3-0.3,0.4-0.7,0.4-1.1v-7.2c0-0.4-0.1-0.8-0.4-1.1c-0.3-0.3-0.7-0.4-1.1-0.4h-2V133.6z"/>
	<path class="st1" d="M238.8,153.8c0,0.6-0.3,0.9-0.9,0.9h-5.7c-0.6,0-0.9-0.3-0.9-0.9v-36.3c0-0.6,0.3-0.9,0.9-0.9h5.7
		c0.6,0,0.9,0.3,0.9,0.9V153.8z"/>
	<path class="st1" d="M257.1,116.8c1,0.4,1.8,1,2.5,1.7c0.7,0.7,1.3,1.6,1.7,2.5c0.4,1,0.6,2,0.6,3.1v2.4c0,0.6-0.3,1-0.8,1.1
		l-5.8,1.5c-0.6,0.2-0.8,0-0.8-0.6v-4.1c0-0.4-0.1-0.8-0.4-1.1c-0.3-0.3-0.7-0.4-1.1-0.4h-0.5c-0.4,0-0.8,0.1-1.1,0.4
		c-0.3,0.3-0.4,0.7-0.4,1.1v3.9c0,0.5,0.1,0.9,0.3,1.2c0.1,0.3,0.4,0.7,0.7,1l8.3,6.2c0.7,0.6,1.1,1.2,1.3,1.8
		c0.2,0.6,0.3,1.3,0.4,2.1v6.5c0,1.1-0.2,2.1-0.6,3.1c-0.4,1-1,1.8-1.7,2.5c-0.7,0.7-1.6,1.3-2.5,1.7c-1,0.4-2,0.6-3.1,0.6h-2.4
		c-1.1,0-2.1-0.2-3.1-0.6c-1-0.4-1.8-1-2.5-1.7c-0.7-0.7-1.3-1.6-1.7-2.5c-0.4-1-0.6-2-0.6-3.1v-3.6c0-0.6,0.3-1,0.8-1.1l5.8-1.5
		c0.6-0.2,0.8,0,0.8,0.6v5.3c0,0.4,0.1,0.8,0.4,1.1c0.3,0.3,0.7,0.4,1.1,0.4h0.5c0.4,0,0.8-0.1,1.1-0.4c0.3-0.3,0.4-0.7,0.4-1.1
		v-3.9c0-0.5-0.1-1-0.3-1.5c-0.1-0.4-0.4-0.8-0.8-1.1l-8.2-6.3c-0.6-0.6-1.1-1.2-1.4-1.8c-0.3-0.6-0.4-1.4-0.4-2.4v-5.7
		c0-1.1,0.2-2.1,0.6-3.1c0.4-1,1-1.8,1.7-2.5c0.7-0.7,1.6-1.3,2.5-1.7c1-0.4,2-0.6,3.1-0.6h2.4C255.1,116.1,256.1,116.3,257.1,116.8
		z"/>
	<path class="st1" d="M274.2,153.8c0,0.6-0.3,0.9-0.9,0.9h-5.7c-0.6,0-0.9-0.3-0.9-0.9v-36.3c0-0.6,0.3-0.9,0.9-0.9h5.7
		c0.6,0,0.9,0.3,0.9,0.9V153.8z"/>
	<path class="st1" d="M292.5,116.8c1,0.4,1.8,1,2.5,1.7c0.7,0.7,1.3,1.6,1.7,2.5c0.4,1,0.6,2,0.6,3.1v2.4c0,0.6-0.3,1-0.8,1.1
		l-5.8,1.5c-0.6,0.2-0.8,0-0.8-0.6v-4.1c0-0.4-0.1-0.8-0.4-1.1c-0.3-0.3-0.7-0.4-1.1-0.4h-0.5c-0.4,0-0.8,0.1-1.1,0.4
		c-0.3,0.3-0.4,0.7-0.4,1.1v3.9c0,0.5,0.1,0.9,0.3,1.2c0.1,0.3,0.4,0.7,0.7,1l8.3,6.2c0.7,0.6,1.1,1.2,1.3,1.8
		c0.2,0.6,0.3,1.3,0.4,2.1v6.5c0,1.1-0.2,2.1-0.6,3.1c-0.4,1-1,1.8-1.7,2.5c-0.7,0.7-1.6,1.3-2.5,1.7c-1,0.4-2,0.6-3.1,0.6H287
		c-1.1,0-2.1-0.2-3.1-0.6s-1.8-1-2.5-1.7c-0.7-0.7-1.3-1.6-1.7-2.5c-0.4-1-0.6-2-0.6-3.1v-3.6c0-0.6,0.3-1,0.8-1.1l5.8-1.5
		c0.5-0.2,0.8,0,0.8,0.6v5.3c0,0.4,0.1,0.8,0.4,1.1c0.3,0.3,0.7,0.4,1.1,0.4h0.5c0.4,0,0.8-0.1,1.1-0.4c0.3-0.3,0.4-0.7,0.4-1.1
		v-3.9c0-0.5-0.1-1-0.3-1.5c-0.1-0.4-0.4-0.8-0.8-1.1l-8.2-6.3c-0.6-0.6-1.1-1.2-1.4-1.8c-0.3-0.6-0.4-1.4-0.4-2.4v-5.7
		c0-1.1,0.2-2.1,0.6-3.1c0.4-1,1-1.8,1.7-2.5c0.7-0.7,1.6-1.3,2.5-1.7c1-0.4,2-0.6,3.1-0.6h2.4C290.5,116.1,291.5,116.3,292.5,116.8
		z"/>
	<path class="st1" d="M323.1,116.8c1,0.4,1.8,1,2.5,1.7c0.7,0.7,1.3,1.6,1.7,2.5c0.4,1,0.6,2,0.6,3.1v2.4c0,0.6-0.3,1-0.8,1.1
		l-5.8,1.5c-0.6,0.2-0.8,0-0.8-0.6v-4.1c0-0.4-0.1-0.8-0.4-1.1c-0.3-0.3-0.7-0.4-1.1-0.4h-0.5c-0.4,0-0.8,0.1-1.1,0.4
		c-0.3,0.3-0.4,0.7-0.4,1.1v3.9c0,0.5,0.1,0.9,0.3,1.2c0.1,0.3,0.4,0.7,0.7,1l8.3,6.2c0.7,0.6,1.1,1.2,1.3,1.8
		c0.2,0.6,0.3,1.3,0.4,2.1v6.5c0,1.1-0.2,2.1-0.6,3.1c-0.4,1-1,1.8-1.7,2.5c-0.7,0.7-1.6,1.3-2.5,1.7c-1,0.4-2,0.6-3.1,0.6h-2.4
		c-1.1,0-2.1-0.2-3.1-0.6s-1.8-1-2.5-1.7c-0.7-0.7-1.3-1.6-1.7-2.5c-0.4-1-0.6-2-0.6-3.1v-3.6c0-0.6,0.3-1,0.8-1.1l5.8-1.5
		c0.5-0.2,0.8,0,0.8,0.6v5.3c0,0.4,0.1,0.8,0.4,1.1c0.3,0.3,0.7,0.4,1.1,0.4h0.5c0.4,0,0.8-0.1,1.1-0.4c0.3-0.3,0.4-0.7,0.4-1.1
		v-3.9c0-0.5-0.1-1-0.3-1.5c-0.1-0.4-0.4-0.8-0.8-1.1l-8.2-6.3c-0.6-0.6-1.1-1.2-1.4-1.8c-0.3-0.6-0.4-1.4-0.4-2.4v-5.7
		c0-1.1,0.2-2.1,0.6-3.1c0.4-1,1-1.8,1.7-2.5c0.7-0.7,1.6-1.3,2.5-1.7c1-0.4,2-0.6,3.1-0.6h2.4C321.1,116.1,322.1,116.3,323.1,116.8
		z"/>
	<path class="st1" d="M348.3,148.2v5.7c0,0.6-0.3,0.9-0.9,0.9h-13.8c-0.6,0-0.9-0.3-0.9-0.9v-36.3c0-0.6,0.3-0.9,0.9-0.9h13.8
		c0.6,0,0.9,0.3,0.9,0.9v5.7c0,0.6-0.3,0.9-0.9,0.9h-7.2v7.2h6.3c0.6,0,0.9,0.3,0.9,0.9v5.7c0,0.6-0.3,0.9-0.9,0.9h-6.3v8.6h7.2
		C348,147.3,348.3,147.6,348.3,148.2z"/>
	<path class="st1" d="M361.2,153.8c0,0.6-0.3,0.9-1,0.9h-5.7c-0.6,0-0.8-0.3-0.8-0.9v-36.3c0-0.6,0.3-0.9,0.9-0.9h9.5
		c1.1,0,2.1,0.2,3.1,0.6c1,0.4,1.8,1,2.5,1.7c0.7,0.7,1.3,1.6,1.7,2.5c0.4,1,0.6,2,0.6,3.1v7.8c0,1.6-0.5,3-1.4,4.2
		c-0.9,1.2-2.1,2.2-3.4,2.9l6,14.3c0.1,0.6-0.1,0.9-0.6,0.9H367c-0.3,0-0.5-0.1-0.7-0.3c-0.2-0.2-0.4-0.4-0.5-0.6l-4.6-11.8V153.8z
		 M361.2,133.6h2c0.4,0,0.8-0.1,1.1-0.4c0.3-0.3,0.4-0.7,0.4-1.1v-7.2c0-0.4-0.1-0.8-0.4-1.1c-0.3-0.3-0.7-0.4-1.1-0.4h-2V133.6z"/>
	<path class="st1" d="M398.1,117.5l-7.5,36.3c-0.1,0.6-0.4,0.9-1,0.9H384c-0.6,0-0.9-0.3-1-0.9l-7.5-36.3c-0.1-0.6,0.2-0.9,0.8-0.9
		h6.9c0.5,0,0.9,0.3,1,0.9l2.6,23.8h0.3l2.6-23.8c0.1-0.6,0.4-0.9,1-0.9h6.9C397.9,116.6,398.2,116.9,398.1,117.5z"/>
	<path class="st1" d="M409.1,153.8c0,0.6-0.3,0.9-0.9,0.9h-5.7c-0.6,0-0.9-0.3-0.9-0.9v-36.3c0-0.6,0.3-0.9,0.9-0.9h5.7
		c0.6,0,0.9,0.3,0.9,0.9V153.8z"/>
	<path class="st1" d="M427.7,116.8c1,0.4,1.8,1,2.5,1.7c0.7,0.7,1.3,1.6,1.7,2.5c0.4,1,0.6,2,0.6,3.1v3.8c0,0.6-0.3,1-0.8,1.1
		L426,130c-0.6,0.2-0.8,0-0.8-0.6v-4.9c0-0.4-0.1-0.8-0.4-1.1c-0.3-0.3-0.7-0.4-1.1-0.4h-0.5c-0.4,0-0.8,0.1-1.1,0.4
		c-0.3,0.3-0.4,0.7-0.4,1.1v22.4c0,0.4,0.1,0.8,0.4,1.1c0.3,0.3,0.7,0.4,1.1,0.4h0.5c0.4,0,0.8-0.1,1.1-0.4c0.3-0.3,0.4-0.7,0.4-1.1
		v-7.6c0-0.6,0.3-0.8,0.8-0.6l5.8,0.8c0.5,0.2,0.8,0.6,0.8,1.1v6.7c0,1.1-0.2,2.1-0.6,3.1c-0.4,1-1,1.8-1.7,2.5
		c-0.7,0.7-1.6,1.3-2.5,1.7s-2,0.6-3.1,0.6h-2.4c-1.1,0-2.1-0.2-3.1-0.6c-1-0.4-1.8-1-2.5-1.7c-0.7-0.7-1.3-1.6-1.7-2.5
		c-0.4-1-0.6-2-0.6-3.1v-23c0-1.1,0.2-2.1,0.6-3.1c0.4-1,1-1.8,1.7-2.5c0.7-0.7,1.6-1.3,2.5-1.7c1-0.4,2-0.6,3.1-0.6h2.4
		C425.7,116.1,426.7,116.3,427.7,116.8z"/>
</g>
<g class="st0">
	<path class="st1" d="M452.9,148.2v5.7c0,0.6-0.3,0.9-0.9,0.9h-13.8c-0.6,0-0.9-0.3-0.9-0.9v-36.3c0-0.6,0.3-0.9,0.9-0.9H452
		c0.6,0,0.9,0.3,0.9,0.9v5.7c0,0.6-0.3,0.9-0.9,0.9h-7.2v7.2h6.3c0.6,0,0.9,0.3,0.9,0.9v5.7c0,0.6-0.3,0.9-0.9,0.9h-6.3v8.6h7.2
		C452.6,147.3,452.9,147.6,452.9,148.2z"/>
</g>
<g class="st0">
	<path class="st1" d="M470.3,116.8c1,0.4,1.8,1,2.5,1.7c0.7,0.7,1.3,1.6,1.7,2.5c0.4,1,0.6,2,0.6,3.1v2.4c0,0.6-0.3,1-0.8,1.1
		l-5.8,1.5c-0.6,0.2-0.8,0-0.8-0.6v-4.1c0-0.4-0.1-0.8-0.4-1.1c-0.3-0.3-0.7-0.4-1.1-0.4h-0.5c-0.4,0-0.8,0.1-1.1,0.4
		c-0.3,0.3-0.4,0.7-0.4,1.1v3.9c0,0.5,0.1,0.9,0.3,1.2c0.1,0.3,0.4,0.7,0.7,1l8.3,6.2c0.7,0.6,1.1,1.2,1.3,1.8
		c0.2,0.6,0.3,1.3,0.4,2.1v6.5c0,1.1-0.2,2.1-0.6,3.1c-0.4,1-1,1.8-1.7,2.5c-0.7,0.7-1.6,1.3-2.5,1.7c-1,0.4-2,0.6-3.1,0.6h-2.4
		c-1.1,0-2.1-0.2-3.1-0.6c-1-0.4-1.8-1-2.5-1.7c-0.7-0.7-1.3-1.6-1.7-2.5c-0.4-1-0.6-2-0.6-3.1v-3.6c0-0.6,0.3-1,0.8-1.1l5.8-1.5
		c0.6-0.2,0.8,0,0.8,0.6v5.3c0,0.4,0.1,0.8,0.4,1.1c0.3,0.3,0.7,0.4,1.1,0.4h0.5c0.4,0,0.8-0.1,1.1-0.4c0.3-0.3,0.4-0.7,0.4-1.1
		v-3.9c0-0.5-0.1-1-0.3-1.5c-0.1-0.4-0.4-0.8-0.8-1.1l-8.2-6.3c-0.6-0.6-1.1-1.2-1.4-1.8c-0.3-0.6-0.4-1.4-0.4-2.4v-5.7
		c0-1.1,0.2-2.1,0.6-3.1c0.4-1,1-1.8,1.7-2.5c0.7-0.7,1.6-1.3,2.5-1.7c1-0.4,2-0.6,3.1-0.6h2.4C468.2,116.1,469.3,116.3,470.3,116.8
		z"/>
</g>
<path class="st2" d="M205.6,34.2c3,1.3,5.4,3.7,6.6,6.7c0.7,1.5,1,3.2,1,4.9v13.6c0.1,0.8-0.5,1.6-1.3,1.8l-9,1.4
	c-0.9,0.3-1.3-0.1-1.3-1V46.2c0-1.3-1.1-2.4-2.4-2.4c0,0,0,0,0,0h-0.8c-1.3,0-2.4,1.1-2.4,2.4c0,0,0,0,0,0v44.9
	c0,1.3,1.1,2.4,2.4,2.4c0,0,0,0,0,0h0.8c1.3,0,2.4-1.1,2.4-2.4c0,0,0,0,0,0V70.4c0-0.9,0.4-1.3,1.3-1l9,1.2c0.8,0.2,1.4,1,1.3,1.8
	v19.2c0,1.7-0.3,3.3-1,4.9c-1.3,3-3.7,5.4-6.6,6.7c-1.5,0.7-3.2,1-4.9,1H197c-1.7,0-3.3-0.3-4.9-1c-3-1.3-5.4-3.7-6.6-6.7
	c-0.7-1.5-1-3.2-1-4.9V45.7c0-1.7,0.3-3.3,1-4.9c1.3-3,3.7-5.4,6.6-6.7c1.5-0.7,3.2-1,4.9-1h3.8C202.4,33.2,204.1,33.5,205.6,34.2z"
	/>
<path class="st2" d="M250.5,91.6c0,1.7-0.3,3.3-1,4.9c-1.3,3-3.7,5.4-6.6,6.7c-1.5,0.7-3.2,1-4.9,1h-3.8c-1.7,0-3.3-0.3-4.9-1
	c-3-1.3-5.4-3.7-6.6-6.7c-0.7-1.5-1-3.2-1-4.9V45.7c0-1.7,0.3-3.3,1-4.9c1.3-3,3.7-5.4,6.6-6.7c1.5-0.7,3.2-1,4.9-1h3.8
	c1.7,0,3.3,0.3,4.9,1c3,1.3,5.4,3.7,6.6,6.7c0.7,1.5,1,3.2,1,4.9L250.5,91.6L250.5,91.6z M238.9,46.2c0-1.3-1.1-2.4-2.4-2.4
	c0,0,0,0,0,0h-0.8c-1.3,0-2.4,1.1-2.4,2.4c0,0,0,0,0,0v44.9c0,1.3,1.1,2.4,2.4,2.4c0,0,0,0,0,0h0.8c1.3,0,2.4-1.1,2.4-2.4
	c0,0,0,0,0,0V46.2z"/>
<path class="st2" d="M286.3,93.2v8.8c0.1,0.7-0.4,1.3-1,1.4c-0.1,0-0.2,0-0.3,0h-22.5c-0.7,0.1-1.3-0.4-1.3-1.1c0-0.1,0-0.2,0-0.3
	V35.3c-0.1-0.7,0.4-1.3,1-1.4c0.1,0,0.2,0,0.3,0h8.8c0.7-0.1,1.3,0.4,1.4,1c0,0.1,0,0.2,0,0.3v56.5h12.3c0.7-0.1,1.3,0.4,1.3,1.1
	C286.3,93,286.3,93.1,286.3,93.2z"/>
<path class="st2" d="M321.5,91.6c0,1.7-0.3,3.3-1,4.9c-1.3,3-3.7,5.4-6.6,6.7c-1.5,0.7-3.2,1-4.9,1h-3.8c-1.7,0-3.3-0.3-4.9-1
	c-3-1.3-5.4-3.7-6.6-6.7c-0.7-1.5-1-3.2-1-4.9V45.7c0-1.7,0.3-3.3,1-4.9c1.3-3,3.7-5.4,6.6-6.7c1.5-0.7,3.2-1,4.9-1h3.8
	c1.7,0,3.3,0.3,4.9,1c3,1.3,5.4,3.7,6.6,6.7c0.7,1.5,1,3.2,1,4.9L321.5,91.6L321.5,91.6z M309.9,46.2c0-1.3-1.1-2.4-2.4-2.4
	c0,0,0,0,0,0h-0.8c-1.3,0-2.4,1.1-2.4,2.4c0,0,0,0,0,0v44.9c0,1.3,1.1,2.4,2.4,2.4c0,0,0,0,0,0h0.8c1.3,0,2.4-1.1,2.4-2.4
	c0,0,0,0,0,0V46.2z"/>
<path class="st2" d="M362.2,102c0.2,0.9-0.1,1.4-1,1.4h-9c-0.4,0-0.8-0.1-1.1-0.4c-0.4-0.2-0.6-0.6-0.8-1l-7.2-24.3v25.7l-0.1-1
	c-0.1,0.6-0.7,1.1-1.3,1h-8.8c-0.7,0.1-1.3-0.4-1.4-1c0-0.1,0-0.2,0-0.3V35.3c-0.1-0.7,0.4-1.3,1-1.4c0.1,0,0.2,0,0.3,0h14.9
	c1.7,0,3.3,0.3,4.9,1c3,1.3,5.4,3.7,6.6,6.7c0.7,1.5,1,3.2,1,4.9v16.2c0,2.3-0.6,4.6-1.9,6.6c-1.2,1.9-3,3.5-5,4.5L362.2,102z
	 M343.1,64.5h3.2c1.3,0,2.4-1.1,2.4-2.4c0,0,0,0,0,0V46.9c0-1.3-1.1-2.4-2.4-2.4c0,0,0,0,0,0h-3.2V64.5L343.1,64.5z"/>
<path class="st2" d="M399.6,102c0.2,0.6-0.1,1.2-0.7,1.3c-0.2,0.1-0.4,0.1-0.5,0h-9c-0.8,0-1.4-0.5-1.5-1.3c0,0,0-0.1,0-0.1
	l-0.8-10.7H381l-0.8,10.7c0,0.8-0.6,1.4-1.4,1.4c0,0-0.1,0-0.1,0h-9c-0.6,0.1-1.1-0.3-1.2-0.9c0-0.2,0-0.4,0-0.5l7.5-66.7
	c0-0.8,0.7-1.4,1.5-1.4c0,0,0.1,0,0.1,0h13.1c0.8-0.1,1.5,0.5,1.6,1.3c0,0,0,0.1,0,0.1L399.6,102z M386.3,80.2l-1.9-26.9h-0.8
	l-1.9,26.9L386.3,80.2L386.3,80.2z"/>
<path class="st2" d="M424.4,33.9c1.7,0,3.3,0.3,4.9,1c3,1.3,5.4,3.7,6.6,6.7c0.7,1.5,1,3.2,1,4.9v44.5c0,1.7-0.3,3.3-1,4.9
	c-1.3,3-3.7,5.4-6.6,6.7c-1.5,0.7-3.2,1-4.9,1h-14.9c-0.7,0.1-1.3-0.4-1.4-1c0-0.1,0-0.2,0-0.3V35.3c-0.1-0.7,0.4-1.3,1-1.4
	c0.1,0,0.2,0,0.3,0H424.4z M425.3,46.9c0-1.3-1.1-2.4-2.4-2.4c0,0,0,0,0,0h-3.2v48.3h3.2c1.3,0,2.4-1.1,2.4-2.4c0,0,0,0,0,0V46.9
	L425.3,46.9z"/>
<path class="st2" d="M474.7,91.6c0,1.7-0.3,3.3-1,4.9c-1.3,3-3.7,5.4-6.6,6.7c-1.5,0.7-3.2,1-4.9,1h-3.8c-1.7,0-3.3-0.3-4.9-1
	c-3-1.3-5.4-3.7-6.6-6.7c-0.7-1.5-1-3.2-1-4.9V45.7c0-1.7,0.3-3.3,1-4.9c1.3-3,3.7-5.4,6.6-6.7c1.5-0.7,3.2-1,4.9-1h3.8
	c1.7,0,3.3,0.3,4.9,1c3,1.3,5.4,3.7,6.6,6.7c0.7,1.5,1,3.2,1,4.9V91.6z M463.1,46.2c0-1.3-1.1-2.4-2.4-2.4c0,0,0,0,0,0h-0.8
	c-1.3,0-2.4,1.1-2.4,2.4c0,0,0,0,0,0v44.9c0,1.3,1.1,2.4,2.4,2.4c0,0,0,0,0,0h0.8c1.3,0,2.4-1.1,2.4-2.4c0,0,0,0,0,0V46.2z"/>
<polygon class="st3" points="54.7,53.1 61.4,32 80.8,39.1 73.6,54.8 66,58.9 "/>
<polygon class="st3" points="107.4,39.7 124.7,33.7 130.1,45.5 130.1,52.5 117.7,58.9 "/>
<polygon class="st4" points="93.4,27.3 75.6,47.8 69.4,62.2 73.6,71.5 89.5,90.5 97.6,90.5 110.6,71.5 112.9,53.1 103.9,35.7 "/>
<polygon class="st4" points="75.6,90.5 58.5,79.3 38.6,77.9 26.9,84.2 26.9,92 36.9,102.8 56,108.1 72.4,104.4 75.6,100.4 "/>
<polygon class="st4" points="112,102.8 134.8,106.1 153.5,98.1 164.9,88.2 159.2,81.3 140.8,77.9 127.5,82.6 116.6,88.2 110.6,95.7 
	"/>
<polygon class="st4" points="58.9,137.6 58.5,126.6 64.1,117.1 73.6,117.1 80.8,115.8 80.8,125.2 75.6,135.6 69.4,137.6 "/>
<polygon class="st4" points="103.3,117.5 107.4,130.7 112.9,136.2 124.7,139.3 128.3,135.9 128.3,126.6 122.4,117.5 112.9,115.8 
	103.3,113.5 103.3,115.8 "/>
<path class="st1" d="M127.5,153.7c0-0.8-0.6-1.5-1.4-1.5c-6.7-0.2-15.4-1.8-21.4-7.7c-10.2-10.1-7.8-33.9-7.7-34.6l0.4-2.7v-0.7
	c0-2-1.6-3.6-3.5-3.6c0,0,0,0,0,0l0,0c-2,0-3.6,1.6-3.6,3.6c0,0,0,0,0,0v0.7l0.4,2.7c0.1,0.8,2.6,24.5-7.7,34.6
	c-6,5.9-14.7,7.5-21.4,7.7c-0.8,0-1.5,0.7-1.5,1.5v3.4c0,0.8,0.7,1.5,1.5,1.5H126c0.8,0,1.5-0.7,1.5-1.5V153.7z"/>
<path class="st1" d="M172.2,82.3c-6.2-3.9-13-6.8-20.1-8.5c2.6-7.4,3.9-15.3,3.7-23.2c0-0.4-0.3-0.8-0.7-0.9
	c-4.5-0.9-9.2-1.4-13.8-1.4c-2.1,0-4.3,0.1-6.4,0.3c-1.2-7.1-3.5-14.1-6.7-20.6c-0.2-0.4-0.6-0.6-1-0.5c-6.5,1.6-12.7,4-18.6,7.2
	c-4.2-5.7-9.1-10.8-14.6-15.1c-0.3-0.3-0.8-0.3-1.1,0c-5.5,4.4-10.4,9.5-14.6,15.2c-5.8-3.2-12.1-5.6-18.5-7.2
	c-0.4-0.1-0.8,0.1-1,0.5c-3.2,6.5-5.5,13.4-6.7,20.6c-2.1-0.2-4.2-0.3-6.3-0.3c-4.6,0-9.2,0.5-13.8,1.4c-0.4,0.1-0.7,0.5-0.7,0.9
	c-0.2,7.9,1.1,15.7,3.7,23.2c-6.9,1.7-13.4,4.4-19.5,8.1c-0.4,0.3-0.6,0.8-0.3,1.2c1.8,3.4,9.7,17.4,22.9,24.3
	c-4.3,5.2-7.6,11-9.9,17.3c-0.2,0.4,0,0.9,0.4,1.1c2.7,1.5,13.2,6.6,24.4,6.6h0.9c-0.3,3.2-0.4,6.3,0,9.5c0,0.4,0.4,0.8,0.8,0.8
	c1.7,0.2,3.4,0.3,5.1,0.3c5.8,0,14.6-1,20.3-6.6c6.2-6.1,7-16.1,6.9-21.8c-0.1-2.5-2.1-4.6-4.6-4.7h-1.6c-5.8,0-14.6,1-20.3,6.6
	c-1.9,1.9-3.4,4.1-4.4,6.6c-1.1,0.1-2.1,0.2-3.2,0.2c-4.2-0.1-8.3-0.8-12.2-2.2c-0.5-0.2-0.7-0.7-0.6-1.2c0-0.1,0-0.1,0.1-0.2
	c1.9-3.4,4.2-6.5,7-9.2c2.3,0.5,4.7,0.7,7.1,0.7c11,0,21.2-4.5,26.7-7.4c2.3-1.2,3.2-4.1,2-6.4c-0.1-0.1-0.1-0.2-0.2-0.3
	C78.6,90.5,69,77.6,54.9,73.7c-3-0.8-6.2-1.2-9.4-1.2h-1.5c-1.3-3.1-2.3-6.4-2.9-9.8c-0.3-1.5-0.5-2.8-0.6-4.1c0-0.5,0.3-1,0.9-1
	c0,0,0,0,0,0c1.3-0.1,2.8-0.2,4.2-0.2c5.9,0,14,1,19.5,5.5c2.5,2.2,4.5,4.9,5.8,7.9c4.2,12.4,14.3,22.3,19.4,26.8
	c1.8,1.6,4.5,1.6,6.2,0c5-4.4,14.8-14,19.1-26.1c1.3-3.3,3.4-6.3,6.1-8.6c5.4-4.5,13.6-5.5,19.5-5.5c1.5,0,2.9,0.1,4.2,0.2
	c0.5,0,0.9,0.5,0.9,1c0,0,0,0,0,0c-0.1,1.3-0.3,2.7-0.6,4.1c-0.6,3.4-1.6,6.7-2.9,9.8h-1.5c-3.2,0-6.3,0.4-9.3,1.2
	c-14.1,3.9-23.7,16.8-27.9,23.6c-1.4,2.2-0.7,5.2,1.5,6.5c0.1,0.1,0.2,0.1,0.3,0.2c5.5,2.9,15.7,7.4,26.7,7.4c2.4,0,4.7-0.2,7.1-0.7
	c2.3,2.3,4.3,4.8,6,7.6c0.6,0.9,1.1,1.8,1.5,2.6c-4.2,1.6-8.7,2.4-13.2,2.6c-1.1,0-2.1-0.1-3.2-0.2c-1-2.5-2.5-4.7-4.4-6.6
	c-5.7-5.6-14.5-6.6-20.3-6.6h-1.6c-2.5,0.1-4.5,2.1-4.6,4.7c-0.1,5.7,0.7,15.7,6.9,21.8c5.7,5.6,14.5,6.6,20.3,6.6
	c1.7,0,3.4-0.1,5.1-0.3c0.4,0,0.8-0.4,0.8-0.8c0.3-3.2,0.3-6.4-0.1-9.5h0.9c11.2,0,21.7-5.2,24.4-6.6c0.4-0.2,0.6-0.7,0.4-1.1
	c-2.3-6.3-5.7-12.2-9.9-17.3C164,99.5,172.2,82.3,172.2,82.3z M66.8,123.1c2.2-2.1,6.1-3.5,10.9-3.9c-0.4,3.9-1.4,8.3-4.1,10.9
	c-1.8,1.8-4.8,3-8.5,3.6c-1,0.2-1.9-0.5-2.1-1.5c0-0.2,0-0.4,0-0.6C63.6,128.4,64.7,125.1,66.8,123.1z M45.5,81.5
	c2.4,0,4.7,0.3,7,0.9c7.9,2.2,14.2,8.3,18.5,13.8c0.6,0.8,0.5,1.9-0.3,2.6c-0.1,0.1-0.3,0.2-0.5,0.3c-5.1,2.1-10.5,3.2-16,3.4
	c-2.4,0-4.7-0.3-7-0.9c-7.9-2.2-14.3-8.4-18.5-13.8c-0.6-0.8-0.5-1.9,0.3-2.6c0.1-0.1,0.3-0.2,0.5-0.3
	C34.6,82.8,40.1,81.7,45.5,81.5z M60.9,50.5c0.5-3.8,1.5-7.4,2.8-11c0.2-0.6,0.9-1,1.6-0.7c0,0,0,0,0,0c2.8,1.1,5.6,2.3,8.3,3.8
	c-2,3.8-3.4,8-4.1,12.2C66.8,52.9,63.9,51.5,60.9,50.5L60.9,50.5z M93.5,88.2c-4-3.9-9.3-9.9-12.6-16.8c-0.5-1.4-1-2.8-1.6-4.1
	c-0.8-2.5-1.2-5-1.2-7.6c0-10.2,7.5-20.5,14-27.1c0.8-0.8,2-0.8,2.8,0c0,0,0,0,0,0c6.1,6.2,14,16.3,14,27.1c0,3-0.6,5.9-1.7,8.7
	c-0.2,0.6-0.5,1.2-0.7,1.8C103.4,77.3,98,83.8,93.5,88.2L93.5,88.2z M117.5,54.8c-0.7-4.3-2.1-8.4-4.1-12.2c2.7-1.5,5.4-2.7,8.2-3.8
	c0.6-0.2,1.3,0.1,1.6,0.7c0,0,0,0,0,0c1.3,3.6,2.2,7.3,2.8,11.1C123,51.5,120.1,53,117.5,54.8L117.5,54.8z M113.2,130
	c-2.6-2.6-3.7-6.9-4.1-10.9c4.9,0.4,8.8,1.8,10.9,3.9s3.2,5.3,3.7,8.5c0.2,1-0.5,1.9-1.5,2.1c-0.2,0-0.4,0-0.6,0
	C118,133.1,115,131.8,113.2,130z M139.6,101.4c-2.3,0.6-4.6,0.9-7,0.9c-5.5-0.1-10.8-1.3-15.9-3.3c-0.9-0.4-1.4-1.4-1-2.4
	c0.1-0.2,0.2-0.3,0.3-0.5c4.2-5.4,10.6-11.6,18.5-13.8c2.3-0.6,4.6-0.9,7-0.9c5.5,0.1,10.9,1.3,15.9,3.3c0.9,0.4,1.4,1.5,1,2.4
	c-0.1,0.2-0.2,0.3-0.3,0.4C153.8,93.1,147.5,99.3,139.6,101.4L139.6,101.4z"/>
<path class="st1" d="M71.7,100.8l-27.2-9.5c-0.4-0.1-0.7-0.6-0.6-1s0.6-0.7,1-0.6l0,0l28.3,5.6c1.5,0.3,2.6,1.7,2.3,3.3
	c-0.3,1.5-1.7,2.6-3.3,2.3c0,0-0.1,0-0.1,0L71.7,100.8z"/>
<path class="st1" d="M90.6,88.2l2-33.4c0-0.4,0.4-0.8,0.8-0.8c0.4,0,0.8,0.4,0.8,0.8l2,33.4c0.1,1.6-1.1,2.9-2.7,3
	c-1.6,0.1-2.9-1.1-3-2.7C90.6,88.4,90.6,88.3,90.6,88.2z"/>
<path class="st1" d="M79.7,121.2l-9.7,6.7c-0.4,0.3-0.9,0.2-1.1-0.2c-0.2-0.3-0.2-0.7,0-1l6.9-9.6c1-1.2,2.8-1.4,4-0.4
	c1.1,0.9,1.4,2.5,0.6,3.7C80.2,120.7,80,121,79.7,121.2z"/>
<path class="st1" d="M111.1,117.2l6.1,8.8c0.2,0.4,0.1,0.9-0.2,1.1c-0.3,0.2-0.6,0.2-0.9,0l-8.9-6c-1.3-1-1.5-2.8-0.6-4
	c0.9-1.2,2.5-1.5,3.8-0.7C110.7,116.6,110.9,116.8,111.1,117.2z"/>
<path class="st1" d="M113.7,95.4l28.3-5.6c0.4-0.1,0.9,0.1,1,0.6s-0.1,0.9-0.6,1l0,0l-27.2,9.5c-1.5,0.5-3.1-0.3-3.6-1.8
	c-0.5-1.4,0.3-3,1.7-3.5L113.7,95.4z"/>
<path class="st1" d="M66.7,55.6l-1.4-11c0-0.5,0.3-0.9,0.7-0.9c0.3,0,0.6,0.1,0.8,0.4l5.3,9.8c0.8,1.4,0.2,3.1-1.2,3.9
	c-1.4,0.8-3.1,0.2-3.9-1.2l0,0C66.8,56.3,66.7,56,66.7,55.6z"/>
<path class="st1" d="M115,53.9l5.3-9.8c0.2-0.4,0.7-0.5,1.1-0.3c0.3,0.2,0.4,0.5,0.4,0.8l-1.4,11c-0.2,1.6-1.6,2.7-3.1,2.6
	c-1.6-0.2-2.7-1.6-2.6-3.1c0-0.1,0-0.1,0-0.2C114.7,54.5,114.8,54.2,115,53.9z"/>
</svg>
