 <svg version="1.0" xmlns="http://www.w3.org/2000/svg" width="700.000000pt" height="337.000000pt" viewBox="0 0 700.000000 337.000000" preserveAspectRatio="xMidYMid meet">
<metadata>
Created by potrace 1.12, written by Peter Selinger 2001-2015
</metadata>
<g transform="translate(0.000000,337.000000) scale(0.100000,-0.100000)" fill="#FFFFFF" stroke="none">
<path fill="#f3e494" d="M2725 2630 c-451 -49 -761 -360 -831 -830 -80 -546 205 -1008 701
-1136 124 -31 313 -42 436 -25 137 20 344 98 418 158 l24 20 -73 159 c-89 193
-87 190 -114 166 -54 -49 -163 -100 -263 -122 -69 -16 -232 -13 -308 5 -97 22
-180 69 -255 145 -119 119 -170 256 -170 459 0 202 51 332 180 461 85 86 163
132 266 156 139 33 321 -3 465 -92 39 -24 74 -44 78 -44 4 0 40 79 81 177 85
204 89 180 -46 244 -108 51 -244 87 -379 99 -60 5 -117 9 -125 9 -8 -1 -46 -5
-85 -9z"></path>
<path fill="#a89f65" d="M294 2426 c-3 -8 -4 -25 -2 -38 l3 -23 815 0 815 0 0 35 0 35 -813 3
c-698 2 -813 0 -818 -12z"></path>
<path fill="#a89f65" d="M3620 2400 l0 -40 1515 0 1515 0 0 40 0 40 -1515 0 -1515 0 0 -40z"></path>
<path d="M4904 2201 c-52 -23 -79 -68 -94 -151 -25 -139 6 -222 138 -363 115
-125 137 -167 137 -268 0 -88 -12 -109 -61 -109 -50 0 -63 28 -72 151 l-7 104
-70 0 -70 0 2 -97 c4 -222 77 -310 244 -295 106 9 157 60 180 175 32 166 -11
282 -165 451 -53 58 -100 119 -107 139 -23 69 7 152 55 152 48 -1 66 -39 66
-141 l0 -69 75 0 75 0 0 43 c-1 78 -20 180 -43 220 -32 57 -75 77 -167 77 -51
0 -88 -6 -116 -19z"></path>
<path d="M6034 2206 c-72 -32 -110 -125 -102 -254 6 -101 34 -153 151 -278 49
-53 97 -115 108 -137 24 -54 26 -172 3 -205 -23 -33 -78 -28 -105 11 -1 1 -4
52 -8 112 l-6 110 -70 0 -70 0 -3 -75 c-6 -149 34 -261 105 -295 83 -40 196
-28 258 26 50 45 68 114 63 243 -4 89 -8 108 -35 161 -17 33 -74 108 -126 167
-53 58 -100 116 -106 127 -6 11 -11 45 -11 75 0 63 22 96 65 96 37 0 55 -36
62 -129 l6 -81 70 0 70 0 -5 99 c-5 111 -31 179 -81 215 -36 27 -184 34 -233
12z"></path>
<path d="M650 1695 l0 -515 80 0 80 0 0 515 0 515 -80 0 -80 0 0 -515z"></path>
<path d="M1102 1698 l3 -513 74 -3 73 -3 -4 305 c-2 228 -1 300 8 283 6 -12
55 -149 109 -305 l98 -283 56 3 56 3 3 513 2 512 -77 0 -76 0 7 -292 c3 -160
4 -290 2 -287 -3 3 -46 121 -96 264 -51 143 -97 272 -102 288 -9 26 -13 27
-74 27 l-64 0 2 -512z"></path>
<path d="M3640 1696 l0 -516 80 0 80 0 0 240 0 240 43 0 c23 0 48 -4 55 -8 25
-16 32 -80 32 -274 l0 -198 80 0 80 0 0 113 c-1 165 -16 341 -34 374 -8 16
-22 35 -30 42 -14 12 -13 17 13 47 37 41 44 88 40 231 -5 118 -19 157 -72 197
-26 19 -44 21 -198 24 l-169 4 0 -516z m269 370 c13 -14 16 -38 16 -125 0
-131 -11 -151 -82 -151 l-43 0 0 151 0 152 46 -6 c25 -2 53 -12 63 -21z"></path>
<path d="M4370 1695 l0 -515 80 0 80 0 0 515 0 515 -80 0 -80 0 0 -515z"></path>
<path d="M5500 1695 l0 -515 75 0 75 0 0 515 0 515 -75 0 -75 0 0 -515z"></path>
<path fill="#38a6bc" d="M2699 1956 c-141 -50 -179 -192 -96 -359 59 -118 164 -223 300 -296
65 -35 88 -38 143 -15 195 81 374 308 374 475 0 62 -11 89 -56 138 -38 43
-106 71 -170 71 -33 0 -148 -33 -174 -49 -32 -22 4 -23 65 -2 125 41 230 19
282 -60 23 -35 25 -46 21 -117 -6 -108 -45 -180 -158 -292 -80 -80 -201 -160
-241 -160 -15 0 -69 88 -69 112 0 8 29 36 65 62 36 26 65 53 65 60 0 6 -29 41
-65 76 -36 35 -65 69 -65 75 0 6 29 33 65 60 35 28 64 53 65 57 1 20 -65 109
-94 127 -39 25 -137 51 -186 51 -19 -1 -51 -7 -71 -14z"></path>
<path fill="#a89f65" d="M290 965 l0 -35 820 0 820 0 0 35 0 35 -820 0 -820 0 0 -35z"></path>
<path fill="#a89f65" d="M3620 965 l0 -35 1515 0 1515 0 0 35 0 35 -1515 0 -1515 0 0 -35z"></path>
</g>
</svg>