 <svg version="1.0" xmlns="http://www.w3.org/2000/svg" width="700.000000pt" height="337.000000pt" viewBox="0 0 700.000000 337.000000" preserveAspectRatio="xMidYMid meet">
<metadata>
Created by potrace 1.12, written by Peter Selinger 2001-2015
</metadata>
<g transform="translate(0.000000,337.000000) scale(0.100000,-0.100000)" fill="#000000" stroke="none">
<path d="M0 1685 l0 -1685 3500 0 3500 0 0 1685 0 1685 -3500 0 -3500 0 0
-1685z m3146 1090 c108 -27 229 -76 266 -107 l26 -23 -59 -140 c-32 -77 -64
-150 -69 -163 l-10 -23 -33 24 c-125 95 -309 141 -444 113 -197 -41 -356 -197
-408 -401 -22 -86 -20 -244 5 -339 64 -250 252 -391 520 -389 125 1 239 34
329 94 31 21 59 34 64 30 11 -11 137 -283 137 -296 0 -29 -176 -112 -314 -148
-124 -32 -335 -29 -471 7 -258 67 -443 214 -556 441 -77 156 -92 227 -93 430
0 209 18 297 98 461 152 311 450 477 821 457 55 -3 141 -15 191 -28z m-1071
-180 l-1 -30 -744 0 c-710 0 -745 1 -748 18 -10 49 -46 47 750 45 l743 -3 0
-30z m4290 0 l0 -30 -1370 -3 c-753 -1 -1375 0 -1381 2 -6 2 -9 18 -6 35 l4
31 1377 -2 1376 -3 0 -30z m-1385 -183 c55 -30 90 -124 90 -243 l0 -49 -64 0
-63 0 -6 74 c-7 92 -18 116 -57 116 -38 0 -60 -32 -60 -90 0 -56 15 -80 119
-195 102 -111 132 -172 139 -269 12 -185 -52 -276 -192 -276 -140 0 -192 70
-198 264 l-2 90 64 -1 65 -1 5 -95 c4 -75 9 -99 24 -116 23 -25 53 -27 78 -4
23 20 25 136 4 187 -8 18 -53 76 -100 127 -113 122 -140 176 -139 278 0 110
32 178 98 207 46 20 154 18 195 -4z m1020 0 c53 -26 81 -92 88 -202 l5 -90
-65 0 -65 0 -5 79 c-5 88 -17 111 -58 111 -33 0 -48 -16 -56 -58 -13 -64 3
-95 102 -208 53 -60 108 -131 122 -159 25 -46 27 -60 27 -165 0 -101 -3 -120
-23 -158 -32 -61 -89 -86 -183 -80 -83 4 -114 24 -149 93 -21 43 -24 63 -25
153 l0 104 63 1 63 1 3 -97 c3 -108 17 -137 66 -137 42 0 54 23 54 104 0 92
-20 130 -125 241 -110 117 -133 168 -127 284 5 107 24 146 88 179 56 28 149
30 200 4z m-4950 -457 l0 -460 -67 0 -68 0 -3 450 c-1 248 0 456 3 463 3 9 24
12 70 10 l65 -3 0 -460z m389 448 c11 -22 160 -442 173 -489 17 -64 23 -34 16
79 -5 61 -7 182 -6 267 l3 155 60 0 60 0 0 -460 0 -460 -49 0 -49 0 -58 165
c-33 91 -76 216 -96 278 -21 61 -41 112 -46 112 -5 0 -7 -6 -4 -14 3 -8 7
-133 8 -277 l2 -264 -64 0 -64 0 -3 450 c-1 248 0 456 3 463 7 20 102 16 114
-5z m2511 -1 c55 -27 71 -67 77 -185 6 -117 -5 -172 -42 -207 l-25 -24 25 -26
c34 -36 44 -98 45 -297 l2 -168 -69 0 -68 0 -5 203 c-6 229 -7 232 -82 232
l-38 0 -2 -217 -3 -218 -67 -3 -68 -3 0 466 0 465 143 0 c115 0 149 -3 177
-18z m481 -447 l0 -460 -68 0 -68 0 -3 450 c-1 248 0 456 3 463 3 9 24 12 70
10 l66 -3 0 -460z m1024 0 l0 -460 -70 0 -70 0 -3 450 c-1 248 0 456 3 463 3
9 24 12 72 10 l68 -3 0 -460z m-2475 214 l55 -25 55 25 c72 33 165 40 225 16
116 -44 146 -176 74 -324 -60 -123 -261 -291 -347 -291 -66 0 -206 94 -288
191 -100 119 -134 250 -89 339 50 97 188 127 315 69z m-906 -884 l0 -30 -744
0 c-710 0 -745 1 -748 18 -10 49 -46 47 750 45 l742 -3 0 -30z m4291 0 l0 -30
-1370 -3 c-753 -1 -1375 0 -1381 2 -6 2 -9 18 -6 35 l4 31 1377 -2 1376 -3 0
-30z"></path>
<path d="M3770 2176 l0 -136 44 0 c61 0 70 15 74 124 4 119 -6 140 -71 144
l-47 3 0 -135z"></path>
<path d="M3030 2106 c0 -8 5 -18 10 -21 22 -14 8 -49 -35 -87 -30 -27 -45 -48
-45 -64 0 -16 17 -43 45 -73 25 -26 45 -53 45 -59 0 -5 -22 -29 -50 -52 -58
-49 -63 -73 -24 -120 34 -40 41 -32 15 19 -12 22 -21 42 -21 44 0 2 27 23 60
47 33 24 60 49 60 56 0 7 -25 40 -55 72 -30 33 -55 64 -55 70 0 5 25 29 55 52
30 23 55 47 55 53 0 15 -41 77 -51 77 -5 0 -9 -6 -9 -14z"></path>
</g>
</svg>